<svg width="16" height="12" viewBox="0 0 16 12" fill="none" xmlns="http://www.w3.org/2000/svg">
<path d="M14.7762 9.4875C15.54 8.76161 15.9983 7.85089 15.9983 6.85714C15.9983 4.71429 13.8735 2.94375 11.1044 2.62768C10.2295 1.08482 8.17421 0 5.77727 0C2.58599 0 0.000187065 1.91786 0.000187065 4.28571C0.000187065 5.27679 0.458465 6.1875 1.22226 6.91607C0.797314 7.73839 0.186276 8.37589 0.175166 8.38661C0.00018707 8.56607 -0.0498069 8.82857 0.0529585 9.05625C0.152947 9.28393 0.386252 9.43125 0.641777 9.43125C2.12771 9.43125 3.32757 8.89018 4.11914 8.39196C4.37466 8.44821 4.63852 8.49107 4.90793 8.52321C5.78005 10.0607 7.82703 11.1429 10.2212 11.1429C10.7989 11.1429 11.3544 11.0786 11.8821 10.9607C12.6737 11.4563 13.8707 12 15.3595 12C15.615 12 15.8455 11.8527 15.9483 11.625C16.0483 11.3973 16.001 11.1348 15.8261 10.9554C15.815 10.9473 15.2011 10.3098 14.7762 9.4875ZM3.86639 7.01518L3.39145 7.3125C2.99983 7.55625 2.59988 7.74911 2.19437 7.88571C2.26936 7.75982 2.34435 7.62589 2.41656 7.48929L2.84707 6.65625L2.15826 6C1.78331 5.64107 1.33336 5.05446 1.33336 4.28571C1.33336 2.65982 3.36923 1.28571 5.77727 1.28571C8.18532 1.28571 10.2212 2.65982 10.2212 4.28571C10.2212 5.91161 8.18532 7.28571 5.77727 7.28571C5.31899 7.28571 4.86071 7.23482 4.41632 7.13571L3.86639 7.01518ZM13.8402 8.57143L13.1542 9.225L13.5847 10.058C13.6569 10.1946 13.7319 10.3286 13.8069 10.4545C13.4014 10.3179 13.0014 10.125 12.6098 9.88125L12.1348 9.58393L11.5821 9.70714C11.1377 9.80625 10.6795 9.85714 10.2212 9.85714C8.72136 9.85714 7.38263 9.31875 6.5744 8.52589C9.38795 8.23661 11.5544 6.45268 11.5544 4.28571C11.5544 4.19464 11.5432 4.10625 11.5349 4.01786C13.3236 4.40625 14.6651 5.53929 14.6651 6.85714C14.6651 7.62589 14.2151 8.2125 13.8402 8.57143Z" fill="black" fill-opacity="0.75"/>
</svg>
