<svg width="15" height="12" viewBox="0 0 15 12" fill="none" xmlns="http://www.w3.org/2000/svg">
<path d="M13.4297 0.86553C11.7363 -0.435901 9.12011 -0.240419 7.5 1.26721C5.87988 -0.240419 3.26367 -0.438579 1.57031 0.86553C-0.632809 2.5606 -0.310543 5.32414 1.25977 6.78892L6.39844 11.5742C6.6914 11.8474 7.08398 12 7.5 12C7.91894 12 8.30859 11.85 8.60156 11.5769L13.7402 6.7916C15.3076 5.32682 15.6357 2.56328 13.4297 0.86553ZM12.7383 5.88649L7.59961 10.6718C7.52929 10.7361 7.4707 10.7361 7.40039 10.6718L2.26172 5.88649C1.19239 4.89033 0.975589 3.00513 2.47559 1.85098C3.61524 0.975321 5.37305 1.10654 6.47461 2.13215L7.5 3.08814L8.52539 2.13215C9.63281 1.10118 11.3906 0.975322 12.5244 1.8483C14.0215 3.00245 13.7988 4.89836 12.7383 5.88649Z" fill="black" fill-opacity="0.75"/>
</svg>
