<svg width="18" height="11" viewBox="0 0 18 11" fill="none" xmlns="http://www.w3.org/2000/svg">
<path d="M17.8002 7.30138L14.9388 9.89988C14.6724 10.1418 14.2406 10.1418 13.9742 9.89988L11.1128 7.30138C10.8464 7.05948 10.8464 6.6673 11.1128 6.42543L11.4204 6.14611C11.6921 5.89933 12.1346 5.90506 12.3985 6.15881L13.5471 7.26318V2.56309H8.21708C8.03618 2.56308 7.8627 2.49783 7.73477 2.38168L7.28007 1.96875C6.8504 1.57854 7.15471 0.911376 7.76237 0.911376H14.6838C15.0605 0.911376 15.3659 1.18868 15.3659 1.53077V7.26318L16.5145 6.15881C16.7784 5.90509 17.2209 5.89933 17.4927 6.14611L17.8002 6.42543C18.0666 6.6673 18.0666 7.05951 17.8002 7.30138ZM10.2652 7.69962C10.2019 7.6421 10.1267 7.59648 10.0439 7.56536C9.96116 7.53423 9.87246 7.51821 9.78289 7.51822H4.45292V2.81809L5.60151 3.92247C5.86541 4.17619 6.3079 4.18194 6.57967 3.93514L6.88723 3.65585C7.1536 3.41395 7.1536 3.02177 6.88723 2.7799L4.02581 0.181424C3.75943 -0.0604745 3.32757 -0.0604745 3.06123 0.181424L0.19978 2.77992C-0.0665934 3.02182 -0.0665934 3.414 0.19978 3.65587L0.507333 3.93517C0.779078 4.18194 1.22159 4.17621 1.4855 3.9225L2.63409 2.81809V8.55054C2.63409 8.89262 2.93945 9.16993 3.31615 9.16993H10.2376C10.8453 9.16993 11.1496 8.50276 10.7199 8.11255L10.2652 7.69962Z" fill="black" fill-opacity="0.75"/>
</svg>
